<!DOCTYPE svg PUBLIC "-//W3C//DTD SVG 20010904//EN" "http://www.w3.org/TR/2001/REC-SVG-20010904/DTD/svg10.dtd">
<svg version="1.0" xmlns="http://www.w3.org/2000/svg" width="512px" height="512px" viewBox="0 0 5120 5120" preserveAspectRatio="xMidYMid meet"><g fill="#ffff99" stroke="none">
 </g>

<g fill="#ffff70" stroke="none">
 <path d="M24 3536 c-10 -27 2 -43 14 -19 8 14 9 24 2 28 -6 3 -13 -1 -16 -9z"/>
 <path d="M5076 3542 c-3 -5 1 -18 9 -28 14 -18 14 -18 15 3 0 23 -15 39 -24 25z"/>
 <path d="M20 163 c0 -23 15 -39 24 -25 3 5 -1 18 -9 28 -14 18 -14 18 -15 -3z"/>
 <path d="M5082 163 c-8 -14 -9 -24 -2 -28 12 -7 24 18 18 37 -3 8 -9 5 -16 -9z"/>
 </g>

<g fill="#ffff53" stroke="none">
 </g>

<g fill="#ffff1c" stroke="none">
 <path d="M1354 5106 c-46 -20 -77 -70 -82 -131 -5 -65 17 -115 66 -153 l35 -27 227 -5 227 -6 66 -32 c74 -37 109 -73 146 -152 25 -54 26 -61 31 -330 l5 -275 485 0 485 0 5 275 c5 269 6 276 31 330 37 79 72 115 146 152 l66 32 227 6 227 5 35 27 c49 38 71 88 66 153 -5 62 -37 111 -84 131 -49 20 -2363 20 -2410 0z"/>
 <path d="M162 3664 c-67 -33 -128 -103 -147 -167 -13 -44 -15 -260 -15 -1657 0 -1825 -7 -1674 83 -1764 33 -33 67 -56 93 -64 60 -18 4708 -18 4768 0 26 8 60 31 93 64 90 90 83 -61 83 1764 0 1397 -2 1613 -15 1657 -19 64 -80 134 -147 167 l-52 26 -2346 0 -2346 0 -52 -26z m4628 -1824 l0 -1510 -2230 0 -2230 0 0 1510 0 1510 2230 0 2230 0 0 -1510z"/>
 </g>

</svg>