<!DOCTYPE svg PUBLIC "-//W3C//DTD SVG 20010904//EN" "http://www.w3.org/TR/2001/REC-SVG-20010904/DTD/svg10.dtd">
<svg version="1.0" xmlns="http://www.w3.org/2000/svg" width="512px" height="512px" viewBox="0 0 5120 5120" preserveAspectRatio="xMidYMid meet"><g fill="#cccc99" stroke="none">
 </g>

<g fill="#aad580" stroke="none">
 </g>

<g fill="#5da22f" stroke="none">
 <path d="M1316 5081 c-10 -11 -13 -22 -8 -25 5 -3 17 3 26 13 10 11 13 22 8 25 -5 3 -17 -3 -26 -13z"/>
 <path d="M3776 5092 c-3 -5 3 -17 13 -26 11 -10 22 -13 25 -8 3 5 -3 17 -13 26 -11 10 -22 13 -25 8z"/>
 <path d="M1306 4862 c-3 -5 3 -17 13 -26 11 -10 22 -13 25 -8 3 5 -3 17 -13 26 -11 10 -22 13 -25 8z"/>
 <path d="M3786 4851 c-10 -11 -13 -22 -8 -25 5 -3 17 3 26 13 10 11 13 22 8 25 -5 3 -17 -3 -26 -13z"/>
 </g>

<g fill="#77b453" stroke="none">
 </g>

<g fill="#559c25" stroke="none">
 </g>

<g fill="#489412" stroke="none">
 <path d="M1349 5097 c-50 -34 -79 -82 -79 -134 0 -50 11 -75 49 -116 49 -53 65 -57 259 -57 99 0 203 -5 233 -10 92 -18 160 -61 204 -130 45 -72 48 -94 54 -380 l6 -275 485 0 485 0 6 275 c6 286 9 308 54 380 44 69 112 112 204 130 30 5 134 10 233 10 194 0 210 4 259 57 38 41 49 66 49 116 0 52 -29 100 -79 134 l-34 23 -1177 0 -1177 0 -34 -23z"/>
 <path d="M195 3678 c-46 -17 -109 -63 -139 -102 -59 -78 -56 12 -56 -1734 0 -1813 -6 -1674 78 -1760 88 -90 -159 -82 2482 -82 2641 0 2394 -8 2482 82 84 86 78 -52 78 1758 0 1810 6 1672 -78 1758 -26 26 -65 57 -87 67 -39 20 -75 20 -2385 22 -1648 1 -2354 -2 -2375 -9z m4595 -1838 l0 -1510 -2230 0 -2230 0 0 1510 0 1510 2230 0 2230 0 0 -1510z"/>
 </g>

</svg>