<!DOCTYPE svg PUBLIC "-//W3C//DTD SVG 20010904//EN" "http://www.w3.org/TR/2001/REC-SVG-20010904/DTD/svg10.dtd">
<svg version="1.0" xmlns="http://www.w3.org/2000/svg" width="512px" height="512px" viewBox="0 0 5120 5120" preserveAspectRatio="xMidYMid meet"><g fill="#ff9999" stroke="none">
 </g>

<g fill="#ff8080" stroke="none">
 </g>

<g fill="#df6060" stroke="none">
 </g>

<g fill="#dd3333" stroke="none">
 </g>

<g fill="#e74a4a" stroke="none">
 </g>

<g fill="#e31c1c" stroke="none">
 <path d="M1316 5081 c-10 -11 -13 -22 -8 -25 5 -3 17 3 26 13 10 11 13 22 8 25 -5 3 -17 -3 -26 -13z"/>
 <path d="M3776 5092 c-3 -5 3 -17 13 -26 11 -10 22 -13 25 -8 3 5 -3 17 -13 26 -11 10 -22 13 -25 8z"/>
 <path d="M1306 4862 c-3 -5 3 -17 13 -26 11 -10 22 -13 25 -8 3 5 -3 17 -13 26 -11 10 -22 13 -25 8z"/>
 <path d="M3786 4851 c-10 -11 -13 -22 -8 -25 5 -3 17 3 26 13 10 11 13 22 8 25 -5 3 -17 -3 -26 -13z"/>
 <path d="M205 3680 c-4 -6 -10 -8 -15 -5 -5 3 -11 1 -14 -4 -4 -5 -2 -12 3 -15 5 -4 12 -2 16 4 4 6 10 8 15 5 5 -3 11 -1 14 4 4 5 2 12 -3 15 -5 4 -12 2 -16 -4z"/>
 <path d="M4896 3681 c-4 -5 -2 -12 4 -16 5 -3 10 -3 10 1 0 3 6 1 14 -5 10 -8 16 -9 21 -1 3 5 4 11 1 11 -3 1 -9 2 -13 3 -5 1 -13 5 -20 9 -6 4 -14 3 -17 -2z"/>
 <path d="M175 20 c-3 -4 7 -11 21 -14 35 -9 39 -4 8 11 -13 6 -26 8 -29 3z"/>
 <path d="M4910 14 c-14 -8 -18 -13 -10 -13 24 1 55 15 44 21 -5 2 -20 -1 -34 -8z"/>
 </g>

<g fill="#db0000" stroke="none">
 <path d="M1351 5101 c-108 -58 -105 -222 5 -287 39 -23 49 -24 221 -24 99 0 204 -5 234 -10 92 -18 160 -61 204 -130 45 -72 48 -94 54 -380 l6 -275 485 0 485 0 6 275 c6 286 9 308 54 380 44 69 112 112 204 130 30 5 135 10 234 10 172 0 182 1 221 24 111 65 113 231 4 287 -36 18 -78 19 -1210 19 -1110 -1 -1175 -2 -1207 -19z"/>
 <path d="M195 3677 c-92 -36 -155 -100 -180 -183 -23 -75 -23 -3230 0 -3307 22 -74 82 -141 151 -166 55 -21 55 -21 2394 -21 2339 0 2339 0 2394 21 40 14 67 34 96 67 75 88 70 -35 70 1752 0 1783 5 1664 -69 1750 -21 25 -60 56 -87 70 l-49 25 -2345 2 c-1781 1 -2352 -1 -2375 -10z m4595 -1837 l0 -1510 -2230 0 -2230 0 0 1510 0 1510 2230 0 2230 0 0 -1510z"/>
 </g>

</svg>