<!DOCTYPE svg PUBLIC "-//W3C//DTD SVG 20010904//EN" "http://www.w3.org/TR/2001/REC-SVG-20010904/DTD/svg10.dtd">
<svg version="1.0" xmlns="http://www.w3.org/2000/svg" width="512px" height="512px" viewBox="0 0 5120 5120" preserveAspectRatio="xMidYMid meet"><g fill="#d4d4d4" stroke="none">
 <path d="M1342 5100 c-49 -30 -72 -75 -72 -141 0 -64 24 -109 78 -145 29 -20 47 -22 249 -26 234 -5 268 -11 343 -63 21 -15 50 -44 65 -65 54 -78 58 -104 64 -395 l6 -270 485 0 485 0 6 270 c6 291 10 317 64 395 15 21 44 50 65 65 75 52 109 58 343 63 202 4 220 6 249 26 54 36 78 81 78 145 0 66 -23 111 -72 141 -32 20 -53 20 -1218 20 -1165 0 -1186 0 -1218 -20z"/>
 <path d="M165 3666 c-66 -30 -136 -108 -152 -169 -19 -69 -19 -3245 -1 -3314 18 -65 93 -146 155 -167 42 -14 276 -16 2393 -16 2117 0 2351 2 2393 16 62 21 137 102 155 167 18 69 18 3245 0 3314 -17 61 -87 139 -153 169 l-50 24 -2345 0 -2345 0 -50 -24z m4625 -1826 l0 -1510 -2230 0 -2230 0 0 1510 0 1510 2230 0 2230 0 0 -1510z"/>
 </g>

</svg>